<svg width="24" height="30" viewBox="0 0 24 30" fill="none" xmlns="http://www.w3.org/2000/svg">
    <path d="M7.11669 22.3446L4.88075 28.3939C4.51534 29.3825 3.54641 30 2.51261 30C2.23424 30 1.95095 29.9548 1.67259 29.8604C0.365349 29.4153 -0.318653 28.0375 0.145286 26.7828L2.9281 19.2538C3.80999 20.8017 5.31759 21.9472 7.11669 22.3454V22.3446Z" fill="#184276"/>
    <path opacity="0.5" d="M22.4956 23.9376L20.0692 22.5326C18.8326 21.8158 17.4884 21.3132 16.0974 21.0431L14.4264 16.5228H14.6456C17.7117 16.5228 20.4527 18.4303 21.5185 21.3042L22.4948 23.9359V23.9376H22.4956Z" fill="white"/>
    <path d="M22.0227 29.8604C21.7452 29.9549 21.4619 30 21.1835 30C20.1497 30 19.1808 29.3834 18.8154 28.3939L16.8052 22.9564C17.6461 23.2052 18.4574 23.5533 19.2218 23.9959L23.4194 26.4273L23.5508 26.782C24.0156 28.0367 23.3308 29.4146 22.0227 29.8596V29.8604Z" fill="#184276"/>
    <path opacity="0.24" d="M8.50848 20.8041H7.63397L7.65943 20.7278C7.67667 20.7311 7.69309 20.7335 7.71116 20.7368C7.96981 20.7812 8.2375 20.8033 8.5093 20.8033L8.50848 20.8041Z" fill="white"/>
    <path d="M19.7112 16.3955C18.2438 15.3995 16.4866 14.8296 14.6448 14.8296H13.7999L12.7488 11.9869L11.8472 9.54731L14.1431 3.33545C14.6079 2.08077 13.923 0.702088 12.6158 0.257035C12.3621 0.170816 12.1034 0.125654 11.8472 0.118264C12.9073 0.0895242 13.9124 0.711941 14.286 1.72357L15.4142 4.7749L19.7096 16.3964L19.7112 16.3955Z" fill="#4EB1EA"/>
    <path d="M22.4956 23.9376L20.0692 22.5326C18.8326 21.8158 17.4884 21.3133 16.0974 21.0431C15.2919 20.8854 14.4699 20.805 13.6422 20.805H8.50933C8.23753 20.805 7.97066 20.782 7.71119 20.7385C7.69312 20.7352 7.6767 20.7327 7.65946 20.7294C5.6871 20.3714 4.14091 18.7891 3.83545 16.7995L5.42762 12.4927L9.40846 1.72436C9.78208 0.713549 10.9054 -0.027932 11.9663 0.000807561C12.2217 0.00819774 12.4803 0.0533601 12.7349 0.139579C14.0421 0.584632 14.7261 1.96331 14.2622 3.218L11.848 9.5481L10.9341 12.0197L9.26887 16.5228H14.6456C17.7117 16.5228 20.4527 18.4303 21.5185 21.3042L22.4948 23.9359V23.9376H22.4956Z" fill="#804FD0"/>
</svg>
