<svg width="121" height="178" viewBox="0 0 121 178" fill="none" xmlns="http://www.w3.org/2000/svg">
    <path d="M40.5328 94.2953L31.097 119.823C29.555 123.996 25.466 126.601 21.1033 126.601C19.9286 126.601 18.7331 126.411 17.5584 126.012C12.0418 124.134 9.15527 118.32 11.1131 113.025L22.8567 81.2522C26.5784 87.7841 32.9405 92.6181 40.5328 94.2987V94.2953Z" fill="#184276"/>
    <path opacity="0.5" d="M105.433 101.018L95.1931 95.0888C89.9745 92.0637 84.3019 89.943 78.4318 88.8029L71.3801 69.7269H72.3053C85.2444 69.7269 96.8113 77.7766 101.309 89.9049L105.429 101.011V101.018H105.433Z" fill="white"/>
    <path d="M103.437 126.012C102.266 126.411 101.07 126.601 99.8953 126.601C95.5326 126.601 91.4437 123.999 89.9017 119.824L81.4188 96.8769C84.9672 97.9269 88.3908 99.3961 91.6169 101.264L109.331 111.524L109.886 113.021C111.847 118.316 108.957 124.131 103.437 126.009V126.012Z" fill="#184276"/>
    <path opacity="0.24" d="M46.4063 87.7946H42.7159L42.8233 87.4724C42.8961 87.4862 42.9654 87.4966 43.0416 87.5105C44.1332 87.6976 45.2628 87.7911 46.4098 87.7911L46.4063 87.7946Z" fill="white"/>
    <path d="M93.6822 69.1899C87.4899 64.9866 80.0743 62.5817 72.3018 62.5817H68.7361L64.3006 50.5851L60.4958 40.29L70.1846 14.0757C72.1459 8.78082 69.2559 2.96273 63.7393 1.08458C62.6685 0.720735 61.577 0.530148 60.4958 0.498961C64.9694 0.377678 69.2109 3.00431 70.7875 7.27345L75.5487 20.1502L93.6753 69.1933L93.6822 69.1899Z" fill="#4EB1EA"/>
    <path d="M105.433 101.018L95.1931 95.0888C89.9744 92.0637 84.3019 89.943 78.4318 88.803C75.0324 88.1376 71.5638 87.798 68.0708 87.798H46.4098C45.2628 87.798 44.1366 87.701 43.0416 87.5174C42.9654 87.5035 42.8961 87.4931 42.8233 87.4792C34.4998 85.9684 27.9749 79.2909 26.6858 70.8947L33.4048 52.7197L50.2042 7.27689C51.7809 3.01121 56.5213 -0.117874 60.9983 0.00340795C62.076 0.0345949 63.1676 0.225182 64.2418 0.58903C69.7584 2.46718 72.6449 8.28526 70.6871 13.5801L60.4993 40.2934L56.6426 50.7237L49.6151 69.727H72.3053C85.2444 69.727 96.8113 77.7766 101.309 89.9049L105.429 101.011V101.018H105.433Z" fill="#804FD0"/>
    <path d="M3.76172 162.664C3.76172 163.227 3.90234 163.701 4.18359 164.088C4.47656 164.475 4.88086 164.791 5.39648 165.037C5.91211 165.283 6.52148 165.465 7.22461 165.582C7.93945 165.687 8.71875 165.74 9.5625 165.74C10.5938 165.74 11.5078 165.67 12.3047 165.529C13.1016 165.377 13.7988 165.189 14.3965 164.967C14.9941 164.744 15.498 164.504 15.9082 164.246C16.3184 163.977 16.6582 163.719 16.9277 163.473V159.939C15.7559 159.775 14.543 159.623 13.2891 159.482C12.0352 159.33 10.7695 159.254 9.49219 159.254C8.58984 159.254 7.78125 159.307 7.06641 159.412C6.36328 159.518 5.76562 159.699 5.27344 159.957C4.78125 160.215 4.40625 160.566 4.14844 161.012C3.89062 161.445 3.76172 161.996 3.76172 162.664ZM11.2324 153.822C10.1074 153.822 9.14648 153.852 8.34961 153.91C7.55273 153.969 6.86719 154.045 6.29297 154.139C5.73047 154.232 5.25586 154.332 4.86914 154.437C4.48242 154.543 4.14258 154.648 3.84961 154.754C3.70898 154.754 3.58008 154.684 3.46289 154.543C3.3457 154.402 3.28711 154.25 3.28711 154.086C3.28711 153.934 3.35742 153.822 3.49805 153.752C3.5918 153.705 3.80859 153.629 4.14844 153.523C4.5 153.418 4.98633 153.312 5.60742 153.207C6.24023 153.09 7.01953 152.99 7.94531 152.908C8.88281 152.826 9.98438 152.785 11.25 152.785C11.8477 152.785 12.4395 152.826 13.0254 152.908C13.6113 152.978 14.1621 153.113 14.6777 153.312C15.2051 153.512 15.6914 153.787 16.1367 154.139C16.5938 154.49 16.9805 154.947 17.2969 155.51C17.625 156.06 17.8828 156.734 18.0703 157.531C18.2578 158.316 18.3516 159.242 18.3516 160.309V165.371C18.3516 165.512 18.3457 165.652 18.334 165.793C18.3223 165.934 18.2871 166.068 18.2285 166.197C18.1816 166.314 18.1113 166.414 18.0176 166.496C17.9238 166.566 17.7949 166.602 17.6309 166.602C17.3613 166.602 17.1738 166.478 17.0684 166.232C16.9746 165.986 16.9277 165.676 16.9277 165.301V164.088C16.6934 164.381 16.3887 164.685 16.0137 165.002C15.6387 165.318 15.1641 165.611 14.5898 165.881C14.0156 166.139 13.3301 166.355 12.5332 166.531C11.7363 166.695 10.793 166.777 9.70312 166.777C8.68359 166.777 7.72266 166.701 6.82031 166.549C5.92969 166.396 5.15039 166.156 4.48242 165.828C3.82617 165.5 3.30469 165.078 2.91797 164.562C2.54297 164.035 2.35547 163.402 2.35547 162.664C2.35547 161.809 2.53125 161.1 2.88281 160.537C3.24609 159.963 3.74414 159.506 4.37695 159.166C5.00977 158.814 5.74805 158.568 6.5918 158.428C7.44727 158.287 8.36719 158.217 9.35156 158.217C10.0898 158.217 10.8281 158.246 11.5664 158.305C12.3164 158.352 13.0254 158.428 13.6934 158.533C14.3613 158.627 14.9707 158.75 15.5215 158.902C16.084 159.043 16.5527 159.213 16.9277 159.412C16.9277 158.217 16.7695 157.256 16.4531 156.529C16.1367 155.803 15.7148 155.24 15.1875 154.842C14.6602 154.432 14.0508 154.162 13.3594 154.033C12.6797 153.893 11.9707 153.822 11.2324 153.822ZM31.9922 153.822C30.6445 153.822 29.4961 153.934 28.5469 154.156C27.5977 154.379 26.8184 154.736 26.209 155.228C25.6113 155.709 25.1719 156.33 24.8906 157.092C24.6094 157.853 24.4688 158.768 24.4688 159.834C24.4688 160.912 24.6211 161.826 24.9258 162.576C25.2422 163.326 25.7109 163.935 26.332 164.404C26.9648 164.873 27.75 165.213 28.6875 165.424C29.625 165.635 30.7207 165.74 31.9746 165.74C32.5371 165.74 33.1055 165.699 33.6797 165.617C34.2656 165.535 34.8223 165.435 35.3496 165.318C35.877 165.189 36.3633 165.049 36.8086 164.896C37.2539 164.744 37.6172 164.598 37.8984 164.457C38.0742 164.398 38.1973 164.369 38.2676 164.369C38.4199 164.369 38.5371 164.416 38.6191 164.51C38.7129 164.592 38.7598 164.697 38.7598 164.826C38.7598 164.92 38.7305 165.019 38.6719 165.125C38.6133 165.219 38.5195 165.301 38.3906 165.371C37.3594 165.898 36.293 166.268 35.1914 166.478C34.0898 166.678 33.0234 166.777 31.9922 166.777C30.6562 166.777 29.4375 166.672 28.3359 166.461C27.2461 166.25 26.3086 165.881 25.5234 165.353C24.75 164.826 24.1465 164.117 23.7129 163.227C23.2793 162.336 23.0625 161.205 23.0625 159.834C23.0625 158.475 23.2617 157.344 23.6602 156.441C24.0586 155.539 24.6387 154.818 25.4004 154.279C26.1621 153.728 27.0938 153.342 28.1953 153.119C29.3086 152.896 30.5742 152.785 31.9922 152.785C33.0234 152.785 34.0898 152.891 35.1914 153.102C36.293 153.301 37.3594 153.664 38.3906 154.191C38.5195 154.262 38.6133 154.35 38.6719 154.455C38.7305 154.549 38.7598 154.643 38.7598 154.736C38.7598 154.865 38.7129 154.977 38.6191 155.07C38.5371 155.152 38.4199 155.193 38.2676 155.193C38.1973 155.193 38.0742 155.164 37.8984 155.105C37.6172 154.965 37.2539 154.818 36.8086 154.666C36.3633 154.514 35.877 154.379 35.3496 154.262C34.8223 154.133 34.2656 154.027 33.6797 153.945C33.1055 153.863 32.543 153.822 31.9922 153.822ZM59.3262 165.336C59.3262 165.488 59.3145 165.641 59.291 165.793C59.2793 165.945 59.25 166.08 59.2031 166.197C59.1562 166.314 59.0859 166.414 58.9922 166.496C58.9102 166.566 58.7988 166.602 58.6582 166.602C58.4824 166.602 58.3477 166.566 58.2539 166.496C58.1602 166.414 58.084 166.314 58.0254 166.197C57.9785 166.08 57.9492 165.945 57.9375 165.793C57.9258 165.641 57.9199 165.488 57.9199 165.336V159.254C57.9199 158.34 57.8496 157.543 57.709 156.863C57.5684 156.184 57.2988 155.621 56.9004 155.176C56.5137 154.719 55.9688 154.379 55.2656 154.156C54.5625 153.934 53.6484 153.822 52.5234 153.822C51.8438 153.822 51.1113 153.881 50.3262 153.998C49.541 154.103 48.791 154.297 48.0762 154.578C47.373 154.848 46.7461 155.211 46.1953 155.668C45.6445 156.125 45.2637 156.699 45.0527 157.391V165.336C45.0527 165.488 45.041 165.641 45.0176 165.793C45.0059 165.945 44.9766 166.08 44.9297 166.197C44.8828 166.314 44.8125 166.414 44.7188 166.496C44.6367 166.566 44.5254 166.602 44.3848 166.602C44.2207 166.602 44.0859 166.566 43.9805 166.496C43.8867 166.414 43.8105 166.314 43.752 166.197C43.7051 166.08 43.6758 165.945 43.6641 165.793C43.6523 165.641 43.6465 165.488 43.6465 165.336V148.25C43.6465 148.109 43.6523 147.969 43.6641 147.828C43.6758 147.676 43.7051 147.541 43.752 147.424C43.8105 147.307 43.8867 147.213 43.9805 147.143C44.0859 147.06 44.2207 147.019 44.3848 147.019C44.5254 147.019 44.6367 147.055 44.7188 147.125C44.8125 147.195 44.8828 147.289 44.9297 147.406C44.9766 147.523 45.0059 147.658 45.0176 147.81C45.041 147.951 45.0527 148.098 45.0527 148.25V156.16C45.1816 155.691 45.3984 155.281 45.7031 154.93C46.0195 154.578 46.3828 154.279 46.793 154.033C47.2148 153.775 47.6777 153.57 48.1816 153.418C48.6855 153.254 49.1895 153.125 49.6934 153.031C50.209 152.937 50.707 152.873 51.1875 152.838C51.6797 152.803 52.125 152.785 52.5234 152.785C53.7891 152.785 54.8555 152.896 55.7227 153.119C56.5898 153.33 57.2871 153.687 57.8145 154.191C58.3535 154.695 58.7402 155.363 58.9746 156.195C59.209 157.016 59.3262 158.035 59.3262 159.254V165.336ZM72.457 153.822C71.3672 153.822 70.4004 153.916 69.5566 154.103C68.7129 154.291 67.9922 154.596 67.3945 155.018C66.8086 155.428 66.3516 155.961 66.0234 156.617C65.6953 157.273 65.5078 158.076 65.4609 159.025H78.7148V158.076C78.7148 157.49 78.6035 156.939 78.3809 156.424C78.1699 155.908 77.8184 155.457 77.3262 155.07C76.834 154.684 76.1895 154.379 75.3926 154.156C74.5957 153.934 73.6172 153.822 72.457 153.822ZM71.543 165.74C72.6562 165.74 73.6289 165.67 74.4609 165.529C75.293 165.389 76.0078 165.219 76.6055 165.019C77.2031 164.82 77.6895 164.615 78.0645 164.404C78.4512 164.193 78.75 164.018 78.9609 163.877C79.0312 163.853 79.0781 163.842 79.1016 163.842C79.2305 163.842 79.3477 163.906 79.4531 164.035C79.5703 164.152 79.6289 164.281 79.6289 164.422C79.6289 164.551 79.5703 164.656 79.4531 164.738C79.3477 164.844 79.1191 165.008 78.7676 165.23C78.4277 165.453 77.9355 165.682 77.291 165.916C76.6465 166.139 75.8496 166.338 74.9004 166.514C73.9512 166.689 72.8262 166.777 71.5254 166.777C70.166 166.777 69.0117 166.607 68.0625 166.268C67.1133 165.928 66.3398 165.453 65.7422 164.844C65.1445 164.234 64.7109 163.502 64.4414 162.646C64.1719 161.791 64.0371 160.853 64.0371 159.834C64.0371 158.475 64.2539 157.344 64.6875 156.441C65.1211 155.539 65.7129 154.818 66.4629 154.279C67.2246 153.728 68.1152 153.342 69.1348 153.119C70.166 152.896 71.2734 152.785 72.457 152.785C74.8945 152.785 76.7168 153.254 77.9238 154.191C79.1426 155.117 79.752 156.447 79.752 158.182C79.752 158.346 79.7402 158.527 79.7168 158.727C79.6934 158.926 79.6582 159.119 79.6113 159.307C79.5762 159.482 79.5293 159.635 79.4707 159.764C79.4238 159.881 79.377 159.939 79.3301 159.939H74.1621L65.4434 159.764C65.4668 160.853 65.6074 161.779 65.8652 162.541C66.1348 163.291 66.5215 163.906 67.0254 164.387C67.541 164.855 68.1738 165.201 68.9238 165.424C69.6738 165.635 70.5469 165.74 71.543 165.74ZM90.3867 166.777C90.1172 166.777 89.918 166.695 89.7891 166.531C89.6602 166.367 89.5605 166.221 89.4902 166.092L82.6348 154.385C82.5645 154.268 82.5176 154.162 82.4941 154.068C82.4707 153.963 82.459 153.863 82.459 153.769C82.459 153.57 82.5176 153.418 82.6348 153.312C82.752 153.195 82.8926 153.137 83.0566 153.137C83.1855 153.137 83.3203 153.184 83.4609 153.277C83.6016 153.359 83.7246 153.494 83.8301 153.682L90.3867 165.318L96.9434 153.682C97.0488 153.494 97.1719 153.359 97.3125 153.277C97.4531 153.184 97.5879 153.137 97.7168 153.137C97.8809 153.137 98.0215 153.195 98.1387 153.312C98.2559 153.418 98.3145 153.57 98.3145 153.769C98.3145 153.957 98.2559 154.162 98.1387 154.385L91.2832 166.092C91.2012 166.221 91.0898 166.367 90.9492 166.531C90.8086 166.695 90.6211 166.777 90.3867 166.777ZM102.973 162.664C102.973 163.227 103.113 163.701 103.395 164.088C103.688 164.475 104.092 164.791 104.607 165.037C105.123 165.283 105.732 165.465 106.436 165.582C107.15 165.687 107.93 165.74 108.773 165.74C109.805 165.74 110.719 165.67 111.516 165.529C112.312 165.377 113.01 165.189 113.607 164.967C114.205 164.744 114.709 164.504 115.119 164.246C115.529 163.977 115.869 163.719 116.139 163.473V159.939C114.967 159.775 113.754 159.623 112.5 159.482C111.246 159.33 109.98 159.254 108.703 159.254C107.801 159.254 106.992 159.307 106.277 159.412C105.574 159.518 104.977 159.699 104.484 159.957C103.992 160.215 103.617 160.566 103.359 161.012C103.102 161.445 102.973 161.996 102.973 162.664ZM110.443 153.822C109.318 153.822 108.357 153.852 107.561 153.91C106.764 153.969 106.078 154.045 105.504 154.139C104.941 154.232 104.467 154.332 104.08 154.437C103.693 154.543 103.354 154.648 103.061 154.754C102.92 154.754 102.791 154.684 102.674 154.543C102.557 154.402 102.498 154.25 102.498 154.086C102.498 153.934 102.568 153.822 102.709 153.752C102.803 153.705 103.02 153.629 103.359 153.523C103.711 153.418 104.197 153.312 104.818 153.207C105.451 153.09 106.23 152.99 107.156 152.908C108.094 152.826 109.195 152.785 110.461 152.785C111.059 152.785 111.65 152.826 112.236 152.908C112.822 152.978 113.373 153.113 113.889 153.312C114.416 153.512 114.902 153.787 115.348 154.139C115.805 154.49 116.191 154.947 116.508 155.51C116.836 156.06 117.094 156.734 117.281 157.531C117.469 158.316 117.562 159.242 117.562 160.309V165.371C117.562 165.512 117.557 165.652 117.545 165.793C117.533 165.934 117.498 166.068 117.439 166.197C117.393 166.314 117.322 166.414 117.229 166.496C117.135 166.566 117.006 166.602 116.842 166.602C116.572 166.602 116.385 166.478 116.279 166.232C116.186 165.986 116.139 165.676 116.139 165.301V164.088C115.904 164.381 115.6 164.685 115.225 165.002C114.85 165.318 114.375 165.611 113.801 165.881C113.227 166.139 112.541 166.355 111.744 166.531C110.947 166.695 110.004 166.777 108.914 166.777C107.895 166.777 106.934 166.701 106.031 166.549C105.141 166.396 104.361 166.156 103.693 165.828C103.037 165.5 102.516 165.078 102.129 164.562C101.754 164.035 101.566 163.402 101.566 162.664C101.566 161.809 101.742 161.1 102.094 160.537C102.457 159.963 102.955 159.506 103.588 159.166C104.221 158.814 104.959 158.568 105.803 158.428C106.658 158.287 107.578 158.217 108.562 158.217C109.301 158.217 110.039 158.246 110.777 158.305C111.527 158.352 112.236 158.428 112.904 158.533C113.572 158.627 114.182 158.75 114.732 158.902C115.295 159.043 115.764 159.213 116.139 159.412C116.139 158.217 115.98 157.256 115.664 156.529C115.348 155.803 114.926 155.24 114.398 154.842C113.871 154.432 113.262 154.162 112.57 154.033C111.891 153.893 111.182 153.822 110.443 153.822Z" fill="#184276"/>
    <path d="M4.18359 164.088L3.37486 164.676L3.3806 164.684L3.3865 164.692L4.18359 164.088ZM7.22461 165.582L7.06021 166.568L7.06942 166.57L7.07865 166.571L7.22461 165.582ZM12.3047 165.529L12.4785 166.514L12.4855 166.513L12.4925 166.511L12.3047 165.529ZM15.9082 164.246L16.4404 165.093L16.4489 165.087L16.4574 165.082L15.9082 164.246ZM16.9277 163.473L17.602 164.211L17.9277 163.914V163.473H16.9277ZM16.9277 159.939H17.9277V159.07L17.0664 158.949L16.9277 159.939ZM13.2891 159.482L13.1684 160.475L13.1776 160.476L13.2891 159.482ZM7.06641 159.412L6.92044 158.423L6.91807 158.423L7.06641 159.412ZM4.14844 161.012L5.00803 161.523L5.01386 161.513L4.14844 161.012ZM6.29297 154.139L6.13184 153.152L6.12857 153.152L6.29297 154.139ZM3.84961 154.754V155.754H4.02413L4.18833 155.695L3.84961 154.754ZM4.14844 153.523L3.86108 152.566L3.85204 152.568L4.14844 153.523ZM5.60742 153.207L5.77484 154.193L5.78218 154.192L5.78951 154.19L5.60742 153.207ZM7.94531 152.908L7.85815 151.912L7.85705 151.912L7.94531 152.908ZM13.0254 152.908L12.8867 153.898L12.8965 153.9L12.9062 153.901L13.0254 152.908ZM14.6777 153.312L14.3173 154.245L14.3243 154.248L14.6777 153.312ZM16.1367 154.139L15.517 154.924L15.527 154.931L16.1367 154.139ZM17.2969 155.51L16.4253 156L16.4314 156.011L16.4378 156.022L17.2969 155.51ZM18.0703 157.531L17.0969 157.76L17.0977 157.763L18.0703 157.531ZM18.2285 166.197L17.3181 165.783L17.3086 165.804L17.3 165.826L18.2285 166.197ZM18.0176 166.496L18.6176 167.296L18.6477 167.273L18.6761 167.249L18.0176 166.496ZM17.0684 166.232L16.1339 166.588L16.1412 166.607L16.1492 166.626L17.0684 166.232ZM16.9277 164.088H17.9277V161.237L16.1469 163.463L16.9277 164.088ZM14.5898 165.881L14.9994 166.793L15.0071 166.79L15.0148 166.786L14.5898 165.881ZM12.5332 166.531L12.7349 167.511L12.7486 167.508L12.5332 166.531ZM6.82031 166.549L6.65171 167.534L6.65384 167.535L6.82031 166.549ZM4.48242 165.828L4.0352 166.723L4.04152 166.726L4.48242 165.828ZM2.91797 164.562L2.10301 165.142L2.11036 165.152L2.11797 165.162L2.91797 164.562ZM2.88281 160.537L2.03772 160.002L2.03481 160.007L2.88281 160.537ZM4.37695 159.166L4.85008 160.047L4.85636 160.044L4.8626 160.04L4.37695 159.166ZM6.5918 158.428L6.42959 157.441L6.4274 157.441L6.5918 158.428ZM11.5664 158.305L11.4873 159.301L11.4957 159.302L11.504 159.303L11.5664 158.305ZM13.6934 158.533L13.5374 159.521L13.5459 159.522L13.5544 159.523L13.6934 158.533ZM15.5215 158.902L15.2549 159.866L15.2669 159.869L15.2789 159.872L15.5215 158.902ZM16.9277 159.412L16.4586 160.295L17.9277 161.076V159.412H16.9277ZM15.1875 154.842L14.5735 155.631L14.5847 155.64L15.1875 154.842ZM13.3594 154.033L13.1568 155.012L13.1664 155.014L13.1761 155.016L13.3594 154.033ZM2.76172 162.664C2.76172 163.399 2.94846 164.09 3.37486 164.676L4.99233 163.5C4.85623 163.313 4.76172 163.054 4.76172 162.664H2.76172ZM3.3865 164.692C3.79174 165.227 4.33147 165.637 4.96575 165.94L5.82721 164.135C5.43025 163.945 5.16138 163.722 4.98069 163.484L3.3865 164.692ZM4.96575 165.94C5.58363 166.234 6.28659 166.439 7.06021 166.568L7.38901 164.596C6.75638 164.49 6.24059 164.332 5.82721 164.135L4.96575 165.94ZM7.07865 166.571C7.84904 166.685 8.67778 166.74 9.5625 166.74V164.74C8.75972 164.74 8.02987 164.69 7.37057 164.593L7.07865 166.571ZM9.5625 166.74C10.637 166.74 11.6111 166.667 12.4785 166.514L12.1309 164.544C11.4045 164.673 10.5505 164.74 9.5625 164.74V166.74ZM12.4925 166.511C13.3303 166.351 14.0837 166.15 14.7456 165.904L14.0474 164.03C13.514 164.228 12.8729 164.403 12.1169 164.547L12.4925 166.511ZM14.7456 165.904C15.3884 165.664 15.9576 165.396 16.4404 165.093L15.376 163.399C15.0385 163.612 14.5999 163.824 14.0474 164.03L14.7456 165.904ZM16.4574 165.082C16.8977 164.792 17.2827 164.503 17.602 164.211L16.2535 162.734C16.0337 162.935 15.739 163.161 15.359 163.41L16.4574 165.082ZM17.9277 163.473V159.939H15.9277V163.473H17.9277ZM17.0664 158.949C15.8849 158.784 14.6629 158.63 13.4005 158.489L13.1776 160.476C14.423 160.616 15.6268 160.767 16.7891 160.93L17.0664 158.949ZM13.4097 158.49C12.1153 158.332 10.8094 158.254 9.49219 158.254V160.254C10.7297 160.254 11.955 160.328 13.1685 160.475L13.4097 158.49ZM9.49219 158.254C8.55245 158.254 7.69376 158.309 6.92045 158.423L7.21237 160.401C7.86874 160.304 8.62724 160.254 9.49219 160.254V158.254ZM6.91807 158.423C6.13401 158.541 5.42357 158.749 4.80943 159.071L5.73744 160.843C6.10768 160.649 6.59255 160.494 7.21475 160.401L6.91807 158.423ZM4.80943 159.071C4.16367 159.409 3.64314 159.889 3.28301 160.511L5.01386 161.513C5.16936 161.244 5.39883 161.02 5.73744 160.843L4.80943 159.071ZM3.2889 160.501C2.91397 161.131 2.76172 161.873 2.76172 162.664H4.76172C4.76172 162.119 4.86728 161.759 5.00797 161.523L3.2889 160.501ZM11.2324 152.822C10.092 152.822 9.10513 152.852 8.27628 152.913L8.42294 154.907C9.18784 154.851 10.1229 154.822 11.2324 154.822V152.822ZM8.27628 152.913C7.45999 152.973 6.7436 153.052 6.13184 153.152L6.4541 155.126C6.99077 155.038 7.64548 154.965 8.42294 154.907L8.27628 152.913ZM6.12857 153.152C5.54546 153.249 5.03564 153.356 4.60602 153.473L5.13226 155.402C5.47608 155.308 5.91548 155.215 6.45737 155.125L6.12857 153.152ZM4.60602 153.473C4.20062 153.583 3.8346 153.696 3.51089 153.813L4.18833 155.695C4.45056 155.6 4.76423 155.503 5.13226 155.402L4.60602 153.473ZM3.84961 153.754C3.95411 153.754 4.0506 153.782 4.12631 153.823C4.19599 153.861 4.22826 153.899 4.23111 153.903L2.69467 155.183C2.94031 155.478 3.32789 155.754 3.84961 155.754V153.754ZM4.23111 153.903C4.23415 153.906 4.24995 153.927 4.2644 153.964C4.27939 154.003 4.28711 154.046 4.28711 154.086H2.28711C2.28711 154.511 2.44619 154.885 2.69467 155.183L4.23111 153.903ZM4.28711 154.086C4.28711 154.168 4.26615 154.294 4.18533 154.422C4.10567 154.548 4.00622 154.616 3.94526 154.646L3.05083 152.857C2.84924 152.958 2.64433 153.117 2.49435 153.354C2.34322 153.593 2.28711 153.851 2.28711 154.086H4.28711ZM3.94526 154.646C3.93178 154.653 3.95844 154.64 4.06244 154.603C4.15475 154.571 4.28107 154.529 4.44484 154.478L3.85204 152.568C3.53252 152.667 3.23178 152.767 3.05083 152.857L3.94526 154.646ZM4.43579 154.481C4.72991 154.393 5.17001 154.296 5.77484 154.193L5.44001 152.221C4.80265 152.329 4.27009 152.443 3.86109 152.566L4.43579 154.481ZM5.78951 154.19C6.38099 154.081 7.12676 153.985 8.03357 153.904L7.85705 151.912C6.9123 151.996 6.09948 152.099 5.42533 152.224L5.78951 154.19ZM8.03248 153.904C8.93308 153.826 10.0043 153.785 11.25 153.785V151.785C9.96448 151.785 8.83254 151.827 7.85815 151.912L8.03248 153.904ZM11.25 153.785C11.8017 153.785 12.3472 153.823 12.8867 153.898L13.164 151.918C12.5317 151.829 11.8936 151.785 11.25 151.785V153.785ZM12.9062 153.901C13.4151 153.962 13.8844 154.078 14.3173 154.245L15.0381 152.38C14.4399 152.148 13.8075 151.995 13.1445 151.915L12.9062 153.901ZM14.3243 154.248C14.7551 154.411 15.1517 154.635 15.5171 154.923L16.7564 153.354C16.2311 152.939 15.6551 152.613 15.0311 152.377L14.3243 154.248ZM15.527 154.931C15.8652 155.191 16.167 155.541 16.4253 156L18.1685 155.019C17.7939 154.354 17.3223 153.789 16.7464 153.346L15.527 154.931ZM16.4378 156.022C16.7014 156.464 16.9267 157.037 17.0969 157.76L19.0437 157.302C18.839 156.432 18.5486 155.657 18.156 154.998L16.4378 156.022ZM17.0977 157.763C17.2623 158.453 17.3516 159.297 17.3516 160.309H19.3516C19.3516 159.187 19.2534 158.18 19.043 157.299L17.0977 157.763ZM17.3516 160.309V165.371H19.3516V160.309H17.3516ZM17.3516 165.371C17.3516 165.484 17.3469 165.597 17.3374 165.71L19.3305 165.876C19.3445 165.708 19.3516 165.539 19.3516 165.371H17.3516ZM17.3374 165.71C17.3353 165.736 17.3294 165.759 17.3181 165.783L19.1389 166.611C19.2448 166.378 19.3092 166.131 19.3305 165.876L17.3374 165.71ZM17.3 165.826C17.3046 165.814 17.3122 165.799 17.3237 165.783C17.3352 165.767 17.3476 165.753 17.3591 165.743L18.6761 167.249C18.8903 167.061 19.0523 166.83 19.157 166.569L17.3 165.826ZM17.4176 165.696C17.5541 165.594 17.663 165.602 17.6309 165.602V167.602C17.9268 167.602 18.2936 167.539 18.6176 167.296L17.4176 165.696ZM17.6309 165.602C17.6512 165.602 17.7371 165.608 17.8367 165.673C17.9368 165.739 17.9781 165.816 17.9875 165.838L16.1492 166.626C16.2641 166.894 16.4518 167.157 16.7394 167.345C17.0266 167.534 17.341 167.602 17.6309 167.602V165.602ZM18.0028 165.876C17.9666 165.781 17.9277 165.601 17.9277 165.301H15.9277C15.9277 165.75 15.9826 166.191 16.1339 166.588L18.0028 165.876ZM17.9277 165.301V164.088H15.9277V165.301H17.9277ZM16.1469 163.463C15.9634 163.693 15.7083 163.951 15.3688 164.238L16.6585 165.766C17.0691 165.42 17.4234 165.069 17.7086 164.713L16.1469 163.463ZM15.3688 164.238C15.0768 164.484 14.6818 164.733 14.1649 164.976L15.0148 166.786C15.6463 166.49 16.2005 166.153 16.6585 165.766L15.3688 164.238ZM14.1803 164.969C13.6836 165.192 13.0664 165.39 12.3178 165.555L12.7486 167.508C13.5938 167.321 14.3477 167.086 14.9994 166.793L14.1803 164.969ZM12.3316 165.552C11.619 165.698 10.7465 165.777 9.70312 165.777V167.777C10.8395 167.777 11.8536 167.692 12.7349 167.511L12.3316 165.552ZM9.70312 165.777C8.73316 165.777 7.82832 165.705 6.98679 165.563L6.65384 167.535C7.61699 167.697 8.63403 167.777 9.70312 167.777V165.777ZM6.98892 165.563C6.17335 165.424 5.48913 165.208 4.92333 164.931L4.04152 166.726C4.81165 167.104 5.68602 167.369 6.65171 167.534L6.98892 165.563ZM4.92964 164.934C4.39292 164.665 3.99939 164.338 3.71797 163.962L2.11797 165.162C2.60998 165.818 3.25942 166.335 4.03521 166.722L4.92964 164.934ZM3.73292 163.983C3.49478 163.648 3.35547 163.225 3.35547 162.664H1.35547C1.35547 163.58 1.59116 164.422 2.10301 165.142L3.73292 163.983ZM3.35547 162.664C3.35547 161.942 3.50355 161.431 3.73081 161.067L2.03481 160.007C1.55895 160.768 1.35547 161.675 1.35547 162.664H3.35547ZM3.72789 161.072C3.99378 160.651 4.36003 160.31 4.85008 160.047L3.90383 158.285C3.12825 158.701 2.4984 159.274 2.03773 160.002L3.72789 161.072ZM4.8626 160.04C5.37923 159.753 6.00517 159.539 6.7562 159.414L6.4274 157.441C5.49092 157.597 4.6403 157.876 3.89131 158.292L4.8626 160.04ZM6.754 159.414C7.54923 159.284 8.41438 159.217 9.35156 159.217V157.217C8.32 157.217 7.3453 157.29 6.42959 157.441L6.754 159.414ZM9.35156 159.217C10.0634 159.217 10.7752 159.245 11.4873 159.301L11.6455 157.308C10.881 157.247 10.1163 157.217 9.35156 157.217V159.217ZM11.504 159.303C12.2261 159.348 12.9036 159.421 13.5374 159.521L13.8493 157.545C13.1471 157.435 12.4067 157.355 11.6288 157.307L11.504 159.303ZM13.5544 159.523C14.1867 159.612 14.7527 159.727 15.2549 159.866L15.7881 157.938C15.1887 157.773 14.5359 157.642 13.8323 157.543L13.5544 159.523ZM15.2789 159.872C15.7892 160 16.176 160.145 16.4586 160.295L17.3969 158.529C16.9295 158.281 16.3788 158.086 15.764 157.932L15.2789 159.872ZM17.9277 159.412C17.9277 158.143 17.7618 157.03 17.37 156.13L15.5363 156.929C15.7772 157.482 15.9277 158.291 15.9277 159.412H17.9277ZM17.37 156.13C16.9985 155.277 16.4798 154.565 15.7903 154.044L14.5847 155.64C14.9499 155.916 15.2749 156.328 15.5363 156.929L17.37 156.13ZM15.8014 154.052C15.1414 153.539 14.3825 153.207 13.5427 153.05L13.1761 155.016C13.7191 155.117 14.1789 155.324 14.5736 155.631L15.8014 154.052ZM13.562 153.054C12.8116 152.899 12.0345 152.822 11.2324 152.822V154.822C11.9069 154.822 12.5478 154.886 13.1568 155.012L13.562 153.054ZM26.209 155.228L26.8355 156.008L26.8373 156.006L26.209 155.228ZM24.9258 162.576L23.9992 162.953L24.0044 162.965L24.9258 162.576ZM26.332 164.404L25.7296 165.202L25.7368 165.208L26.332 164.404ZM33.6797 165.617L33.541 164.627L33.5383 164.627L33.6797 165.617ZM35.3496 165.318L35.5665 166.294L35.5768 166.292L35.5871 166.29L35.3496 165.318ZM37.8984 164.457L37.5822 163.508L37.5148 163.531L37.4512 163.563L37.8984 164.457ZM38.6191 164.51L37.8666 165.168L37.9105 165.218L37.9606 165.262L38.6191 164.51ZM38.6719 165.125L39.5199 165.655L39.5335 165.633L39.546 165.611L38.6719 165.125ZM38.3906 165.371L38.8459 166.261L38.8578 166.255L38.8695 166.249L38.3906 165.371ZM35.1914 166.478L35.3694 167.463L35.3795 167.461L35.1914 166.478ZM28.3359 166.461L28.1459 167.443L28.1479 167.443L28.3359 166.461ZM25.5234 165.353L24.9601 166.18L24.9659 166.184L25.5234 165.353ZM25.4004 154.279L25.9781 155.096L25.9863 155.09L25.4004 154.279ZM28.1953 153.119L27.9992 152.138L27.9972 152.139L28.1953 153.119ZM35.1914 153.102L35.0033 154.084L35.0134 154.086L35.1914 153.102ZM38.3906 154.191L38.8695 153.313L38.8578 153.307L38.8459 153.301L38.3906 154.191ZM38.6719 154.455L37.7977 154.941L37.8102 154.963L37.8239 154.985L38.6719 154.455ZM37.8984 155.105L37.4512 156L37.5148 156.032L37.5822 156.054L37.8984 155.105ZM35.3496 154.262L35.1122 155.233L35.1224 155.236L35.1327 155.238L35.3496 154.262ZM33.6797 153.945L33.5383 154.935L33.541 154.936L33.6797 153.945ZM31.9922 152.822C30.5946 152.822 29.3649 152.937 28.3185 153.183L28.7752 155.13C29.6273 154.93 30.6945 154.822 31.9922 154.822V152.822ZM28.3185 153.183C27.2579 153.431 26.332 153.844 25.5806 154.451L26.8373 156.006C27.3047 155.629 27.9374 155.326 28.7752 155.13L28.3185 153.183ZM25.5824 154.449C24.8352 155.05 24.2927 155.824 23.9525 156.745L25.8287 157.438C26.0511 156.836 26.3874 156.368 26.8355 156.008L25.5824 154.449ZM23.9525 156.745C23.6197 157.647 23.4688 158.684 23.4688 159.834H25.4688C25.4688 158.851 25.599 158.06 25.8287 157.438L23.9525 156.745ZM23.4688 159.834C23.4688 161.001 23.6329 162.05 23.9993 162.952L25.8522 162.2C25.6093 161.602 25.4688 160.823 25.4688 159.834H23.4688ZM24.0044 162.965C24.386 163.869 24.9614 164.623 25.7296 165.202L26.9344 163.606C26.4605 163.248 26.0984 162.783 25.8471 162.187L24.0044 162.965ZM25.7368 165.208C26.5033 165.776 27.4239 166.164 28.468 166.399L28.907 164.448C28.0761 164.261 27.4264 163.97 26.9273 163.601L25.7368 165.208ZM28.468 166.399C29.4955 166.631 30.6679 166.74 31.9746 166.74V164.74C30.7735 164.74 29.7545 164.639 28.907 164.448L28.468 166.399ZM31.9746 166.74C32.5859 166.74 33.2015 166.696 33.8211 166.607L33.5383 164.627C33.0094 164.703 32.4883 164.74 31.9746 164.74V166.74ZM33.8183 166.607C34.4281 166.522 35.011 166.418 35.5665 166.294L35.1327 164.342C34.6335 164.453 34.1032 164.548 33.541 164.627L33.8183 166.607ZM35.5871 166.29C36.1392 166.155 36.6547 166.006 37.1323 165.843L36.4849 163.95C36.0718 164.092 35.6147 164.224 35.1122 164.347L35.5871 166.29ZM37.1323 165.843C37.6013 165.682 38.0101 165.519 38.3457 165.351L37.4512 163.563C37.2243 163.676 36.9065 163.806 36.4849 163.95L37.1323 165.843ZM38.2147 165.406C38.2494 165.394 38.2785 165.385 38.3026 165.378C38.3268 165.371 38.3437 165.366 38.3542 165.364C38.3653 165.361 38.3647 165.362 38.3548 165.363C38.3494 165.364 38.3397 165.365 38.3261 165.367C38.3128 165.368 38.2929 165.369 38.2676 165.369V163.369C38.0135 163.369 37.7457 163.454 37.5822 163.508L38.2147 165.406ZM38.2676 165.369C38.2422 165.369 38.1796 165.365 38.0983 165.333C38.0123 165.298 37.9309 165.242 37.8666 165.168L39.3717 163.851C39.0582 163.493 38.6384 163.369 38.2676 163.369V165.369ZM37.9606 165.262C37.9071 165.215 37.8509 165.147 37.8108 165.056C37.7711 164.967 37.7598 164.885 37.7598 164.826H39.7598C39.7598 164.42 39.5969 164.036 39.2776 163.757L37.9606 165.262ZM37.7598 164.826C37.7598 164.708 37.7969 164.641 37.7977 164.639L39.546 165.611C39.6641 165.398 39.7598 165.132 39.7598 164.826H37.7598ZM37.8239 164.595C37.8815 164.503 37.9376 164.479 37.9118 164.493L38.8695 166.249C39.1014 166.122 39.3451 165.935 39.5199 165.655L37.8239 164.595ZM37.9353 164.481C36.9856 164.966 36.0089 165.304 35.0033 165.496L35.3795 167.461C36.577 167.231 37.7332 166.83 38.8459 166.261L37.9353 164.481ZM35.0134 165.494C33.9657 165.684 32.9589 165.777 31.9922 165.777V167.777C33.0879 167.777 34.214 167.671 35.3694 167.462L35.0134 165.494ZM31.9922 165.777C30.7078 165.777 29.5532 165.676 28.524 165.479L28.1479 167.443C29.3218 167.668 30.6047 167.777 31.9922 167.777V165.777ZM28.526 165.479C27.545 165.289 26.7375 164.964 26.081 164.523L24.9659 166.184C25.8797 166.797 26.9472 167.211 28.1459 167.443L28.526 165.479ZM26.0868 164.527C25.4656 164.104 24.974 163.532 24.612 162.789L22.8138 163.664C23.319 164.702 24.0344 165.549 24.9601 166.18L26.0868 164.527ZM24.612 162.789C24.2652 162.077 24.0625 161.108 24.0625 159.834H22.0625C22.0625 161.302 22.2934 162.595 22.8138 163.664L24.612 162.789ZM24.0625 159.834C24.0625 158.564 24.2497 157.582 24.5749 156.845L22.7454 156.037C22.2738 157.105 22.0625 158.385 22.0625 159.834H24.0625ZM24.5749 156.845C24.9047 156.099 25.3725 155.524 25.9781 155.096L24.8227 153.463C23.9049 154.113 23.2125 154.98 22.7454 156.037L24.5749 156.845ZM25.9863 155.09C26.612 154.637 27.4048 154.299 28.3934 154.099L27.9972 152.139C26.7827 152.384 25.7122 152.82 24.8144 153.469L25.9863 155.09ZM28.3914 154.1C29.4265 153.893 30.6246 153.785 31.9922 153.785V151.785C30.5239 151.785 29.1907 151.9 27.9992 152.138L28.3914 154.1ZM31.9922 153.785C32.9551 153.785 33.9584 153.884 35.0033 154.084L35.3795 152.119C34.2213 151.898 33.0918 151.785 31.9922 151.785V153.785ZM35.0134 154.086C36.0152 154.267 36.9884 154.597 37.9353 155.082L38.8459 153.301C37.7304 152.731 36.5708 152.335 35.3694 152.117L35.0134 154.086ZM37.9118 155.069C37.9122 155.069 37.8967 155.061 37.8737 155.04C37.8498 155.017 37.822 154.984 37.7977 154.941L39.546 153.969C39.3773 153.666 39.1284 153.455 38.8695 153.313L37.9118 155.069ZM37.8239 154.985C37.8012 154.949 37.7598 154.861 37.7598 154.736H39.7598C39.7598 154.424 39.6597 154.149 39.5199 153.925L37.8239 154.985ZM37.7598 154.736C37.7598 154.677 37.7713 154.604 37.803 154.528C37.8344 154.454 37.8764 154.399 37.912 154.363L39.3262 155.777C39.6015 155.502 39.7598 155.139 39.7598 154.736H37.7598ZM37.912 154.363C37.9846 154.291 38.0664 154.244 38.1394 154.219C38.2079 154.195 38.2559 154.193 38.2676 154.193V156.193C38.5989 156.193 39.0034 156.1 39.3262 155.777L37.912 154.363ZM38.2676 154.193C38.2929 154.193 38.3128 154.195 38.3261 154.196C38.3397 154.197 38.3494 154.198 38.3548 154.199C38.3647 154.201 38.3653 154.201 38.3542 154.199C38.3437 154.196 38.3268 154.192 38.3026 154.184C38.2785 154.177 38.2494 154.168 38.2147 154.157L37.5822 156.054C37.7457 156.109 38.0135 156.193 38.2676 156.193V154.193ZM38.3457 154.211C38.0101 154.043 37.6013 153.88 37.1323 153.72L36.4849 155.612C36.9065 155.756 37.2243 155.886 37.4512 156L38.3457 154.211ZM37.1323 153.72C36.6473 153.554 36.1248 153.41 35.5665 153.285L35.1327 155.238C35.6291 155.348 36.0793 155.473 36.4849 155.612L37.1323 153.72ZM35.5871 153.29C35.0244 153.153 34.4346 153.041 33.8183 152.955L33.541 154.936C34.0967 155.013 34.6202 155.113 35.1122 155.233L35.5871 153.29ZM33.8211 152.955C33.2025 152.867 32.5927 152.822 31.9922 152.822V154.822C32.4932 154.822 33.0084 154.86 33.5383 154.935L33.8211 152.955ZM59.291 165.793L58.3026 165.641L58.2969 165.678L58.294 165.716L59.291 165.793ZM58.9922 166.496L59.643 167.255L59.6507 167.249L58.9922 166.496ZM58.2539 166.496L57.5954 167.249L57.6238 167.273L57.6539 167.296L58.2539 166.496ZM58.0254 166.197L57.0969 166.569L57.1124 166.607L57.131 166.644L58.0254 166.197ZM56.9004 155.176L56.137 155.822L56.1459 155.832L56.1551 155.843L56.9004 155.176ZM50.3262 153.998L50.4593 154.989L50.4666 154.988L50.4738 154.987L50.3262 153.998ZM48.0762 154.578L48.4341 155.512L48.4423 155.509L48.0762 154.578ZM45.0527 157.391L44.0963 157.099L44.0527 157.241V157.391H45.0527ZM45.0176 165.793L44.0292 165.641L44.0234 165.678L44.0205 165.716L45.0176 165.793ZM44.7188 166.496L45.3696 167.255L45.3773 167.249L44.7188 166.496ZM43.9805 166.496L43.322 167.249L43.3713 167.292L43.4258 167.328L43.9805 166.496ZM43.752 166.197L42.8235 166.569L42.8389 166.607L42.8575 166.644L43.752 166.197ZM43.6641 147.828L44.6606 147.911L44.6611 147.905L43.6641 147.828ZM43.752 147.424L42.8575 146.977L42.8389 147.014L42.8235 147.052L43.752 147.424ZM43.9805 147.143L44.5805 147.943L44.5875 147.937L44.5944 147.932L43.9805 147.143ZM44.7188 147.125L44.068 147.884L44.0927 147.905L44.1187 147.925L44.7188 147.125ZM45.0176 147.81L44.0205 147.887L44.0239 147.931L44.0312 147.975L45.0176 147.81ZM45.0527 156.16H44.0527L46.0169 156.425L45.0527 156.16ZM45.7031 154.93L44.9598 154.261L44.9536 154.268L44.9474 154.275L45.7031 154.93ZM46.793 154.033L47.3075 154.891L47.3144 154.886L46.793 154.033ZM48.1816 153.418L48.471 154.375L48.4812 154.372L48.4912 154.369L48.1816 153.418ZM49.6934 153.031L49.5145 152.047L49.5105 152.048L49.6934 153.031ZM51.1875 152.838L51.1163 151.84L51.1145 151.84L51.1875 152.838ZM55.7227 153.119L55.4739 154.088L55.4863 154.091L55.7227 153.119ZM57.8145 154.191L57.1236 154.914L57.1316 154.922L57.8145 154.191ZM58.9746 156.195L58.0121 156.466L58.0131 156.47L58.9746 156.195ZM58.3262 165.336C58.3262 165.437 58.3184 165.538 58.3026 165.641L60.2794 165.945C60.3105 165.743 60.3262 165.54 60.3262 165.336H58.3262ZM58.294 165.716C58.2884 165.788 58.2769 165.82 58.2746 165.826L60.1316 166.569C60.2231 166.34 60.2702 166.103 60.2881 165.87L58.294 165.716ZM58.2746 165.826C58.2792 165.814 58.2868 165.799 58.2983 165.783C58.3098 165.767 58.3223 165.753 58.3337 165.743L59.6507 167.249C59.8649 167.061 60.0269 166.83 60.1316 166.569L58.2746 165.826ZM58.3414 165.737C58.4894 165.61 58.6335 165.602 58.6582 165.602V167.602C58.9642 167.602 59.3309 167.523 59.643 167.255L58.3414 165.737ZM58.6582 165.602C58.6344 165.602 58.6445 165.599 58.6777 165.608C58.7128 165.617 58.7793 165.64 58.8539 165.696L57.6539 167.296C57.9881 167.547 58.3689 167.602 58.6582 167.602V165.602ZM58.9124 165.743C58.9159 165.746 58.9188 165.75 58.9208 165.752C58.9227 165.755 58.9221 165.755 58.9198 165.75L57.131 166.644C57.2446 166.872 57.3989 167.077 57.5954 167.249L58.9124 165.743ZM58.9539 165.826C58.9516 165.82 58.9401 165.788 58.9346 165.716L56.9404 165.87C56.9584 166.103 57.0054 166.34 57.0969 166.569L58.9539 165.826ZM58.9346 165.716C58.9248 165.589 58.9199 165.463 58.9199 165.336H56.9199C56.9199 165.514 56.9268 165.692 56.9404 165.87L58.9346 165.716ZM58.9199 165.336V159.254H56.9199V165.336H58.9199ZM58.9199 159.254C58.9199 158.292 58.8462 157.424 58.6882 156.661L56.7297 157.066C56.853 157.662 56.9199 158.388 56.9199 159.254H58.9199ZM58.6882 156.661C58.5177 155.836 58.1795 155.106 57.6456 154.509L56.1551 155.843C56.4182 156.137 56.619 156.531 56.7297 157.066L58.6882 156.661ZM57.6638 154.53C57.1298 153.899 56.4087 153.469 55.5675 153.203L54.9637 155.11C55.5288 155.288 55.8975 155.539 56.137 155.822L57.6638 154.53ZM55.5675 153.203C54.7297 152.938 53.703 152.822 52.5234 152.822V154.822C53.5939 154.822 54.3953 154.93 54.9637 155.11L55.5675 153.203ZM52.5234 152.822C51.787 152.822 51.0047 152.886 50.1786 153.009L50.4738 154.987C51.218 154.876 51.9005 154.822 52.5234 154.822V152.822ZM50.193 153.007C49.3306 153.123 48.5021 153.336 47.71 153.647L48.4423 155.509C49.0799 155.258 49.7515 155.084 50.4593 154.989L50.193 153.007ZM47.7182 153.644C46.9186 153.951 46.1958 154.368 45.5567 154.898L46.8339 156.437C47.2964 156.054 47.8275 155.744 48.4341 155.512L47.7182 153.644ZM45.5567 154.898C44.854 155.481 44.3636 156.222 44.0963 157.099L46.0092 157.682C46.1637 157.176 46.4351 156.768 46.8339 156.437L45.5567 154.898ZM44.0527 157.391V165.336H46.0527V157.391H44.0527ZM44.0527 165.336C44.0527 165.437 44.045 165.538 44.0292 165.641L46.0059 165.945C46.037 165.743 46.0527 165.54 46.0527 165.336H44.0527ZM44.0205 165.716C44.015 165.788 44.0035 165.82 44.0012 165.826L45.8582 166.569C45.9497 166.34 45.9967 166.103 46.0146 165.87L44.0205 165.716ZM44.0012 165.826C44.0058 165.814 44.0134 165.799 44.0248 165.783C44.0363 165.767 44.0488 165.753 44.0602 165.743L45.3773 167.249C45.5914 167.061 45.7535 166.83 45.8582 166.569L44.0012 165.826ZM44.068 165.737C44.216 165.61 44.36 165.602 44.3848 165.602V167.602C44.6908 167.602 45.0574 167.523 45.3695 167.255L44.068 165.737ZM44.3848 165.602C44.3606 165.602 44.4343 165.597 44.5352 165.664L43.4258 167.328C43.7376 167.536 44.0808 167.602 44.3848 167.602V165.602ZM44.639 165.743C44.6424 165.746 44.6454 165.75 44.6474 165.752C44.6493 165.755 44.6487 165.755 44.6464 165.75L42.8575 166.644C42.9711 166.872 43.1255 167.077 43.322 167.249L44.639 165.743ZM44.6804 165.826C44.6782 165.82 44.6666 165.788 44.6611 165.716L42.667 165.87C42.6849 166.103 42.732 166.34 42.8235 166.569L44.6804 165.826ZM44.6611 165.716C44.6514 165.589 44.6465 165.463 44.6465 165.336H42.6465C42.6465 165.514 42.6533 165.692 42.667 165.87L44.6611 165.716ZM44.6465 165.336V148.25H42.6465V165.336H44.6465ZM44.6465 148.25C44.6465 148.137 44.6512 148.024 44.6606 147.911L42.6675 147.745C42.6535 147.913 42.6465 148.082 42.6465 148.25H44.6465ZM44.6611 147.905C44.6666 147.833 44.6782 147.801 44.6804 147.795L42.8235 147.052C42.732 147.281 42.6849 147.518 42.667 147.751L44.6611 147.905ZM44.6464 147.871C44.6458 147.872 44.6408 147.882 44.6291 147.896C44.6173 147.911 44.601 147.927 44.5805 147.943L43.3805 146.343C43.1485 146.516 42.9773 146.737 42.8575 146.977L44.6464 147.871ZM44.5944 147.932C44.5455 147.97 44.4949 147.994 44.4518 148.007C44.4108 148.019 44.3856 148.019 44.3848 148.019V146.019C44.0503 146.019 43.6846 146.106 43.3665 146.353L44.5944 147.932ZM44.3848 148.019C44.36 148.019 44.216 148.011 44.068 147.884L45.3695 146.366C45.0574 146.098 44.6908 146.019 44.3848 146.019V148.019ZM44.1187 147.925C44.0898 147.903 44.0635 147.877 44.0418 147.848C44.0204 147.819 44.0079 147.794 44.0012 147.778L45.8582 147.035C45.7486 146.761 45.5705 146.514 45.3188 146.325L44.1187 147.925ZM44.0012 147.778C44.0035 147.783 44.015 147.815 44.0205 147.887L46.0146 147.734C45.9967 147.501 45.9497 147.264 45.8582 147.035L44.0012 147.778ZM44.0312 147.975C44.045 148.058 44.0527 148.149 44.0527 148.25H46.0527C46.0527 148.046 46.0371 147.845 46.004 147.646L44.0312 147.975ZM44.0527 148.25V156.16H46.0527V148.25H44.0527ZM46.0169 156.425C46.1081 156.094 46.2563 155.818 46.4588 155.585L44.9474 154.275C44.5406 154.744 44.2552 155.289 44.0885 155.895L46.0169 156.425ZM46.4464 155.599C46.6956 155.322 46.9815 155.086 47.3075 154.891L46.2785 153.176C45.7841 153.472 45.3435 153.834 44.9598 154.261L46.4464 155.599ZM47.3144 154.886C47.6591 154.676 48.0433 154.504 48.471 154.375L47.8923 152.461C47.3121 152.636 46.7705 152.875 46.2715 153.18L47.3144 154.886ZM48.4912 154.369C48.9551 154.218 49.4167 154.1 49.8763 154.014L49.5105 152.048C48.9622 152.15 48.416 152.29 47.8721 152.467L48.4912 154.369ZM49.8722 154.015C50.3558 153.927 50.8185 153.868 51.2605 153.835L51.1145 151.84C50.5956 151.878 50.0621 151.948 49.5145 152.047L49.8722 154.015ZM51.2587 153.835C51.7325 153.801 52.1536 153.785 52.5234 153.785V151.785C52.0964 151.785 51.6268 151.804 51.1163 151.84L51.2587 153.835ZM52.5234 153.785C53.7368 153.785 54.7138 153.892 55.474 154.088L55.9713 152.15C54.9971 151.9 53.8414 151.785 52.5234 151.785V153.785ZM55.4863 154.091C56.2208 154.269 56.7488 154.556 57.1236 154.914L58.5053 153.468C57.8254 152.819 56.9589 152.391 55.959 152.147L55.4863 154.091ZM57.1316 154.922C57.5158 155.281 57.8186 155.78 58.0121 156.466L59.9371 155.924C59.6619 154.947 59.1912 154.109 58.4973 153.461L57.1316 154.922ZM58.0131 156.47C58.2136 157.172 58.3262 158.092 58.3262 159.254H60.3262C60.3262 157.978 60.2044 156.859 59.9361 155.921L58.0131 156.47ZM58.3262 159.254V165.336H60.3262V159.254H58.3262ZM67.3945 155.018L67.968 155.837L67.9712 155.834L67.3945 155.018ZM65.4609 159.025L64.4622 158.976L64.4103 160.025H65.4609V159.025ZM78.7148 159.025V160.025H79.7148V159.025H78.7148ZM78.3809 156.424L77.4553 156.802L77.459 156.811L77.4628 156.82L78.3809 156.424ZM78.0645 164.404L77.5856 163.526L77.5742 163.533L78.0645 164.404ZM78.9609 163.877L78.6447 162.928L78.5177 162.971L78.4062 163.045L78.9609 163.877ZM79.4531 164.035L78.6792 164.668L78.7108 164.707L78.746 164.742L79.4531 164.035ZM79.4531 164.738L78.8797 163.919L78.8079 163.969L78.746 164.031L79.4531 164.738ZM78.7676 165.23L78.2325 164.386L78.226 164.39L78.2196 164.394L78.7676 165.23ZM77.291 165.916L77.6175 166.861L77.6252 166.859L77.6328 166.856L77.291 165.916ZM66.4629 154.279L67.0465 155.091L67.0488 155.09L66.4629 154.279ZM69.1348 153.119L68.9237 152.142L68.9214 152.142L69.1348 153.119ZM77.9238 154.191L77.3104 154.981L77.3189 154.988L77.9238 154.191ZM79.6113 159.307L78.6412 159.064L78.6354 159.087L78.6307 159.11L79.6113 159.307ZM79.4707 159.764L78.5603 159.35L78.5508 159.371L78.5422 159.392L79.4707 159.764ZM74.1621 159.939L74.142 160.939L74.152 160.939H74.1621V159.939ZM65.4434 159.764L65.4635 158.764L64.4212 158.743L64.4436 159.785L65.4434 159.764ZM65.8652 162.541L64.918 162.862L64.921 162.87L64.9242 162.879L65.8652 162.541ZM67.0254 164.387L66.3353 165.11L66.3439 165.119L66.3527 165.127L67.0254 164.387ZM68.9238 165.424L68.6392 166.382L68.6461 166.384L68.6531 166.386L68.9238 165.424ZM72.457 152.822C71.3122 152.822 70.2703 152.92 69.3397 153.127L69.7736 155.08C70.5305 154.911 71.4222 154.822 72.457 154.822V152.822ZM69.3397 153.127C68.3898 153.338 67.5415 153.69 66.8178 154.201L67.9712 155.834C68.4429 155.502 69.036 155.244 69.7736 155.08L69.3397 153.127ZM66.8211 154.198C66.0952 154.706 65.5295 155.369 65.129 156.17L66.9179 157.064C67.1736 156.553 67.5219 156.149 67.968 155.837L66.8211 154.198ZM65.129 156.17C64.7235 156.981 64.5139 157.928 64.4622 158.976L66.4597 159.075C66.5017 158.225 66.6671 157.566 66.9179 157.064L65.129 156.17ZM65.4609 160.025H78.7148V158.025H65.4609V160.025ZM79.7148 159.025V158.076H77.7148V159.025H79.7148ZM79.7148 158.076C79.7148 157.36 79.578 156.674 79.2989 156.027L77.4628 156.82C77.6291 157.205 77.7148 157.621 77.7148 158.076H79.7148ZM79.3064 156.045C79.0221 155.35 78.5552 154.764 77.944 154.284L76.7084 155.857C77.0816 156.15 77.3177 156.466 77.4553 156.802L79.3064 156.045ZM77.944 154.284C77.3209 153.794 76.5466 153.44 75.6617 153.193L75.1235 155.119C75.8323 155.317 76.3471 155.573 76.7084 155.857L77.944 154.284ZM75.6617 153.193C74.75 152.938 73.6747 152.822 72.457 152.822V154.822C73.5597 154.822 74.4415 154.929 75.1235 155.119L75.6617 153.193ZM71.543 166.74C72.6956 166.74 73.7263 166.668 74.6276 166.515L74.2943 164.543C73.5315 164.672 72.6169 164.74 71.543 164.74V166.74ZM74.6276 166.515C75.4945 166.369 76.262 166.188 76.9217 165.968L76.2892 164.071C75.7536 164.249 75.0914 164.408 74.2943 164.543L74.6276 166.515ZM76.9217 165.968C77.5546 165.757 78.1052 165.529 78.5547 165.276L77.5742 163.533C77.2737 163.702 76.8516 163.883 76.2892 164.071L76.9217 165.968ZM78.5433 165.282C78.9401 165.066 79.2686 164.874 79.5156 164.709L78.4062 163.045C78.2314 163.161 77.9623 163.321 77.5856 163.526L78.5433 165.282ZM79.2772 164.826C79.2994 164.818 79.3021 164.818 79.2914 164.821C79.2857 164.822 79.2688 164.826 79.244 164.83C79.2233 164.834 79.1713 164.842 79.1016 164.842V162.842C78.9607 162.842 78.8438 162.871 78.8063 162.88C78.7487 162.895 78.6928 162.912 78.6447 162.928L79.2772 164.826ZM79.1016 164.842C78.9911 164.842 78.8875 164.812 78.8042 164.766C78.7271 164.724 78.6882 164.679 78.6792 164.668L80.2271 163.402C79.9916 163.114 79.6137 162.842 79.1016 162.842V164.842ZM78.746 164.742C78.734 164.73 78.7026 164.695 78.6746 164.633C78.6452 164.569 78.6289 164.495 78.6289 164.422H80.6289C80.6289 163.969 80.4289 163.597 80.1602 163.328L78.746 164.742ZM78.6289 164.422C78.6289 164.328 78.6519 164.218 78.7108 164.112C78.7676 164.01 78.8369 163.949 78.8797 163.919L80.0266 165.557C80.3769 165.312 80.6289 164.917 80.6289 164.422H78.6289ZM78.746 164.031C78.7517 164.025 78.721 164.055 78.6194 164.128C78.5264 164.195 78.3989 164.28 78.2325 164.386L79.3026 166.075C79.6432 165.86 79.9648 165.641 80.1602 165.445L78.746 164.031ZM78.2196 164.394C77.9733 164.555 77.5636 164.753 76.9493 164.976L77.6328 166.856C78.3075 166.61 78.8821 166.351 79.3156 166.067L78.2196 164.394ZM76.9645 164.971C76.382 165.172 75.6369 165.36 74.7183 165.53L75.0825 167.497C76.0623 167.315 76.911 167.105 77.6175 166.861L76.9645 164.971ZM74.7183 165.53C73.8457 165.692 72.7846 165.777 71.5254 165.777V167.777C72.8677 167.777 74.0566 167.687 75.0825 167.497L74.7183 165.53ZM71.5254 165.777C70.2435 165.777 69.2103 165.616 68.3996 165.326L67.7254 167.209C68.8132 167.598 70.0885 167.777 71.5254 167.777V165.777ZM68.3996 165.326C67.567 165.028 66.9305 164.627 66.4561 164.143L65.0282 165.544C65.7492 166.279 66.6596 166.827 67.7254 167.209L68.3996 165.326ZM66.4561 164.143C65.9744 163.652 65.6199 163.059 65.3952 162.346L63.4876 162.947C63.802 163.945 64.3146 164.816 65.0282 165.544L66.4561 164.143ZM65.3952 162.346C65.1601 161.6 65.0371 160.765 65.0371 159.834H63.0371C63.0371 160.942 63.1836 161.982 63.4876 162.947L65.3952 162.346ZM65.0371 159.834C65.0371 158.574 65.2391 157.602 65.5888 156.874L63.7862 156.008C63.2687 157.085 63.0371 158.375 63.0371 159.834H65.0371ZM65.5888 156.874C65.9562 156.11 66.4437 155.525 67.0465 155.091L65.8793 153.467C64.9821 154.112 64.286 154.968 63.7862 156.008L65.5888 156.874ZM67.0488 155.09C67.6874 154.628 68.4481 154.293 69.3481 154.096L68.9214 152.142C67.7824 152.391 66.7618 152.829 65.8769 153.469L67.0488 155.09ZM69.3458 154.097C70.2999 153.891 71.3359 153.785 72.457 153.785V151.785C71.2109 151.785 70.0321 151.902 68.9237 152.142L69.3458 154.097ZM72.457 153.785C74.7954 153.785 76.356 154.24 77.3104 154.981L78.5372 153.402C77.0776 152.268 74.9936 151.785 72.457 151.785V153.785ZM77.3189 154.988C78.2532 155.697 78.752 156.712 78.752 158.182H80.752C80.752 156.182 80.032 154.537 78.5287 153.395L77.3189 154.988ZM78.752 158.182C78.752 158.299 78.7435 158.441 78.7236 158.61L80.7099 158.843C80.737 158.614 80.752 158.392 80.752 158.182H78.752ZM78.7236 158.61C78.705 158.768 78.6773 158.919 78.6412 159.064L80.5815 159.549C80.6391 159.319 80.6817 159.083 80.7099 158.843L78.7236 158.61ZM78.6307 159.11C78.6068 159.23 78.5802 159.306 78.5603 159.35L80.3811 160.177C80.4784 159.963 80.5455 159.735 80.5919 159.503L78.6307 159.11ZM78.5422 159.392C78.534 159.413 78.5539 159.353 78.6195 159.271C78.6721 159.205 78.9053 158.939 79.3301 158.939V160.939C79.8017 160.939 80.0818 160.645 80.1813 160.52C80.2938 160.38 80.3605 160.232 80.3992 160.135L78.5422 159.392ZM79.3301 158.939H74.1621V160.939H79.3301V158.939ZM74.1823 158.94L65.4635 158.764L65.4232 160.763L74.142 160.939L74.1823 158.94ZM64.4436 159.785C64.4685 160.943 64.6183 161.976 64.918 162.862L66.8125 162.22C66.5965 161.582 66.4651 160.764 66.4431 159.742L64.4436 159.785ZM64.9242 162.879C65.2386 163.754 65.7036 164.508 66.3353 165.11L67.7155 163.663C67.3393 163.304 67.0309 162.828 66.8063 162.203L64.9242 162.879ZM66.3527 165.127C66.9926 165.708 67.7629 166.122 68.6392 166.382L69.2084 164.465C68.5848 164.28 68.0894 164.003 67.6981 163.647L66.3527 165.127ZM68.6531 166.386C69.5117 166.628 70.4794 166.74 71.543 166.74V164.74C70.6143 164.74 69.8359 164.642 69.1946 164.461L68.6531 166.386ZM89.4902 166.092L90.3681 165.613L90.3608 165.6L90.3532 165.586L89.4902 166.092ZM82.6348 154.385L83.4977 153.879L83.4923 153.87L82.6348 154.385ZM82.4941 154.068L81.518 154.285L81.5208 154.298L81.524 154.311L82.4941 154.068ZM82.6348 153.312L83.3037 154.056L83.3233 154.038L83.3419 154.02L82.6348 153.312ZM83.4609 153.277L82.9062 154.109L82.9312 154.126L82.9571 154.141L83.4609 153.277ZM83.8301 153.682L82.9585 154.172L82.9589 154.172L83.8301 153.682ZM90.3867 165.318L89.5155 165.809L90.3867 167.355L91.2579 165.809L90.3867 165.318ZM96.9434 153.682L97.8146 154.172L97.8149 154.172L96.9434 153.682ZM97.3125 153.277L97.8164 154.141L97.8423 154.126L97.8672 154.109L97.3125 153.277ZM98.1387 153.312L97.4316 154.02L97.4502 154.038L97.4697 154.056L98.1387 153.312ZM98.1387 154.385L99.0016 154.89L99.013 154.87L99.0236 154.85L98.1387 154.385ZM91.2832 166.092L92.1269 166.629L92.1368 166.613L92.1461 166.597L91.2832 166.092ZM90.3867 165.777C90.3509 165.777 90.3686 165.772 90.4159 165.791C90.4703 165.813 90.5298 165.855 90.5754 165.913L89.0027 167.149C89.3742 167.622 89.9077 167.777 90.3867 167.777V165.777ZM90.5754 165.913C90.4678 165.776 90.4033 165.677 90.3681 165.613L88.6123 166.571C88.7178 166.764 88.8525 166.958 89.0027 167.149L90.5754 165.913ZM90.3532 165.586L83.4977 153.879L81.7718 154.89L88.6273 166.597L90.3532 165.586ZM83.4923 153.87C83.4744 153.84 83.4649 153.821 83.4607 153.812C83.4564 153.802 83.4596 153.807 83.4643 153.826L81.524 154.311C81.579 154.531 81.6754 154.729 81.7773 154.899L83.4923 153.87ZM83.4703 153.851C83.4604 153.807 83.459 153.78 83.459 153.769H81.459C81.459 153.946 81.481 154.119 81.518 154.285L83.4703 153.851ZM83.459 153.769C83.459 153.766 83.4596 153.804 83.4363 153.865C83.411 153.93 83.3665 153.999 83.3037 154.056L81.9658 152.569C81.585 152.912 81.459 153.367 81.459 153.769H83.459ZM83.3419 154.02C83.3163 154.045 83.2732 154.078 83.2127 154.104C83.1521 154.129 83.0964 154.137 83.0566 154.137V152.137C82.6244 152.137 82.2302 152.303 81.9277 152.605L83.3419 154.02ZM83.0566 154.137C82.9352 154.137 82.8795 154.092 82.9062 154.109L84.0156 152.445C83.7611 152.276 83.4359 152.137 83.0566 152.137V154.137ZM82.9571 154.141C82.9302 154.125 82.9187 154.113 82.9202 154.114C82.9224 154.117 82.9366 154.133 82.9585 154.172L84.7017 153.191C84.5362 152.897 84.3008 152.609 83.9648 152.414L82.9571 154.141ZM82.9589 154.172L89.5155 165.809L91.2579 164.827L84.7013 153.191L82.9589 154.172ZM91.2579 165.809L97.8146 154.172L96.0721 153.191L89.5155 164.827L91.2579 165.809ZM97.8149 154.172C97.8369 154.133 97.8511 154.117 97.8532 154.114C97.8547 154.113 97.8432 154.125 97.8164 154.141L96.8086 152.414C96.4727 152.609 96.2372 152.897 96.0718 153.191L97.8149 154.172ZM97.8672 154.109C97.8939 154.092 97.8382 154.137 97.7168 154.137V152.137C97.3375 152.137 97.0123 152.276 96.7578 152.445L97.8672 154.109ZM97.7168 154.137C97.6771 154.137 97.6214 154.129 97.5607 154.104C97.5002 154.078 97.4572 154.045 97.4316 154.02L98.8458 152.605C98.5432 152.303 98.1491 152.137 97.7168 152.137V154.137ZM97.4697 154.056C97.4069 153.999 97.3624 153.93 97.3372 153.865C97.3139 153.804 97.3145 153.766 97.3145 153.769H99.3145C99.3145 153.367 99.1885 152.912 98.8076 152.569L97.4697 154.056ZM97.3145 153.769C97.3145 153.749 97.3201 153.793 97.2538 153.919L99.0236 154.85C99.1916 154.531 99.3145 154.165 99.3145 153.769H97.3145ZM97.2757 153.879L90.4203 165.586L92.1461 166.597L99.0016 154.89L97.2757 153.879ZM90.4395 165.555C90.3909 165.631 90.3113 165.739 90.19 165.88L91.7085 167.182C91.8684 166.995 92.0114 166.81 92.1269 166.629L90.4395 165.555ZM90.19 165.88C90.212 165.855 90.2504 165.822 90.3023 165.8C90.3261 165.789 90.347 165.783 90.3628 165.78C90.3784 165.777 90.387 165.777 90.3867 165.777V167.777C90.8851 167.777 91.3604 167.588 91.7085 167.182L90.19 165.88ZM103.395 164.088L102.586 164.676L102.592 164.684L102.597 164.692L103.395 164.088ZM106.436 165.582L106.271 166.568L106.28 166.57L106.29 166.571L106.436 165.582ZM111.516 165.529L111.689 166.514L111.696 166.513L111.703 166.511L111.516 165.529ZM115.119 164.246L115.651 165.093L115.66 165.087L115.668 165.082L115.119 164.246ZM116.139 163.473L116.813 164.211L117.139 163.914V163.473H116.139ZM116.139 159.939H117.139V159.07L116.277 158.949L116.139 159.939ZM112.5 159.482L112.379 160.475L112.389 160.476L112.5 159.482ZM106.277 159.412L106.131 158.423L106.129 158.423L106.277 159.412ZM103.359 161.012L104.219 161.523L104.225 161.513L103.359 161.012ZM105.504 154.139L105.343 153.152L105.34 153.152L105.504 154.139ZM103.061 154.754V155.754H103.235L103.399 155.695L103.061 154.754ZM103.359 153.523L103.072 152.566L103.063 152.568L103.359 153.523ZM104.818 153.207L104.986 154.193L104.993 154.192L105 154.19L104.818 153.207ZM107.156 152.908L107.069 151.912L107.068 151.912L107.156 152.908ZM112.236 152.908L112.098 153.898L112.107 153.9L112.117 153.901L112.236 152.908ZM113.889 153.312L113.528 154.245L113.535 154.248L113.889 153.312ZM115.348 154.139L114.728 154.924L114.738 154.931L115.348 154.139ZM116.508 155.51L115.636 156L115.642 156.011L115.649 156.022L116.508 155.51ZM117.281 157.531L116.308 157.76L116.309 157.763L117.281 157.531ZM117.439 166.197L116.529 165.783L116.52 165.804L116.511 165.826L117.439 166.197ZM117.229 166.496L117.829 167.296L117.859 167.273L117.887 167.249L117.229 166.496ZM116.279 166.232L115.345 166.588L115.352 166.607L115.36 166.626L116.279 166.232ZM116.139 164.088H117.139V161.237L115.358 163.463L116.139 164.088ZM113.801 165.881L114.21 166.793L114.218 166.79L114.226 166.786L113.801 165.881ZM111.744 166.531L111.946 167.511L111.96 167.508L111.744 166.531ZM106.031 166.549L105.863 167.534L105.865 167.535L106.031 166.549ZM103.693 165.828L103.246 166.723L103.252 166.726L103.693 165.828ZM102.129 164.562L101.314 165.142L101.321 165.152L101.329 165.162L102.129 164.562ZM102.094 160.537L101.249 160.002L101.246 160.007L102.094 160.537ZM103.588 159.166L104.061 160.047L104.067 160.044L104.074 160.04L103.588 159.166ZM105.803 158.428L105.641 157.441L105.638 157.441L105.803 158.428ZM110.777 158.305L110.698 159.301L110.707 159.302L110.715 159.303L110.777 158.305ZM112.904 158.533L112.748 159.521L112.757 159.522L112.765 159.523L112.904 158.533ZM114.732 158.902L114.466 159.866L114.478 159.869L114.49 159.872L114.732 158.902ZM116.139 159.412L115.67 160.295L117.139 161.076V159.412H116.139ZM114.398 154.842L113.784 155.631L113.796 155.64L114.398 154.842ZM112.57 154.033L112.368 155.012L112.377 155.014L112.387 155.016L112.57 154.033ZM101.973 162.664C101.973 163.399 102.159 164.09 102.586 164.676L104.203 163.5C104.067 163.313 103.973 163.054 103.973 162.664H101.973ZM102.597 164.692C103.003 165.227 103.542 165.637 104.177 165.94L105.038 164.135C104.641 163.945 104.372 163.722 104.192 163.484L102.597 164.692ZM104.177 165.94C104.795 166.234 105.498 166.439 106.271 166.568L106.6 164.596C105.967 164.49 105.452 164.332 105.038 164.135L104.177 165.94ZM106.29 166.571C107.06 166.685 107.889 166.74 108.773 166.74V164.74C107.971 164.74 107.241 164.69 106.582 164.593L106.29 166.571ZM108.773 166.74C109.848 166.74 110.822 166.667 111.689 166.514L111.342 164.544C110.615 164.673 109.761 164.74 108.773 164.74V166.74ZM111.703 166.511C112.541 166.351 113.295 166.15 113.957 165.904L113.258 164.03C112.725 164.228 112.084 164.403 111.328 164.547L111.703 166.511ZM113.957 165.904C114.599 165.664 115.169 165.396 115.651 165.093L114.587 163.399C114.249 163.612 113.811 163.824 113.258 164.03L113.957 165.904ZM115.668 165.082C116.109 164.792 116.494 164.503 116.813 164.211L115.464 162.734C115.245 162.935 114.95 163.161 114.57 163.41L115.668 165.082ZM117.139 163.473V159.939H115.139V163.473H117.139ZM116.277 158.949C115.096 158.784 113.874 158.63 112.611 158.489L112.389 160.476C113.634 160.616 114.838 160.767 116 160.93L116.277 158.949ZM112.621 158.49C111.326 158.332 110.02 158.254 108.703 158.254V160.254C109.941 160.254 111.166 160.328 112.379 160.475L112.621 158.49ZM108.703 158.254C107.763 158.254 106.905 158.309 106.131 158.423L106.423 160.401C107.08 160.304 107.838 160.254 108.703 160.254V158.254ZM106.129 158.423C105.345 158.541 104.635 158.749 104.02 159.071L104.948 160.843C105.319 160.649 105.803 160.494 106.426 160.401L106.129 158.423ZM104.02 159.071C103.375 159.409 102.854 159.889 102.494 160.511L104.225 161.513C104.38 161.244 104.61 161.02 104.948 160.843L104.02 159.071ZM102.5 160.501C102.125 161.131 101.973 161.873 101.973 162.664H103.973C103.973 162.119 104.078 161.759 104.219 161.523L102.5 160.501ZM110.443 152.822C109.303 152.822 108.316 152.852 107.487 152.913L107.634 154.907C108.399 154.851 109.334 154.822 110.443 154.822V152.822ZM107.487 152.913C106.671 152.973 105.955 153.052 105.343 153.152L105.665 155.126C106.202 155.038 106.856 154.965 107.634 154.907L107.487 152.913ZM105.34 153.152C104.756 153.249 104.247 153.356 103.817 153.473L104.343 155.402C104.687 155.308 105.126 155.215 105.668 155.125L105.34 153.152ZM103.817 153.473C103.412 153.583 103.046 153.696 102.722 153.813L103.399 155.695C103.661 155.6 103.975 155.503 104.343 155.402L103.817 153.473ZM103.061 153.754C103.165 153.754 103.262 153.782 103.337 153.823C103.407 153.861 103.439 153.899 103.442 153.903L101.906 155.183C102.151 155.478 102.539 155.754 103.061 155.754V153.754ZM103.442 153.903C103.445 153.906 103.461 153.927 103.475 153.964C103.49 154.003 103.498 154.046 103.498 154.086H101.498C101.498 154.511 101.657 154.885 101.906 155.183L103.442 153.903ZM103.498 154.086C103.498 154.168 103.477 154.294 103.396 154.422C103.317 154.548 103.217 154.616 103.156 154.646L102.262 152.857C102.06 152.958 101.855 153.117 101.705 153.354C101.554 153.593 101.498 153.851 101.498 154.086H103.498ZM103.156 154.646C103.143 154.653 103.169 154.64 103.273 154.603C103.366 154.571 103.492 154.529 103.656 154.478L103.063 152.568C102.743 152.667 102.443 152.767 102.262 152.857L103.156 154.646ZM103.647 154.481C103.941 154.393 104.381 154.296 104.986 154.193L104.651 152.221C104.014 152.329 103.481 152.443 103.072 152.566L103.647 154.481ZM105 154.19C105.592 154.081 106.338 153.985 107.245 153.904L107.068 151.912C106.123 151.996 105.31 152.099 104.636 152.224L105 154.19ZM107.243 153.904C108.144 153.826 109.215 153.785 110.461 153.785V151.785C109.175 151.785 108.043 151.827 107.069 151.912L107.243 153.904ZM110.461 153.785C111.013 153.785 111.558 153.823 112.098 153.898L112.375 151.918C111.743 151.829 111.105 151.785 110.461 151.785V153.785ZM112.117 153.901C112.626 153.962 113.095 154.078 113.528 154.245L114.249 152.38C113.651 152.148 113.018 151.995 112.355 151.915L112.117 153.901ZM113.535 154.248C113.966 154.411 114.363 154.635 114.728 154.923L115.967 153.354C115.442 152.939 114.866 152.613 114.242 152.377L113.535 154.248ZM114.738 154.931C115.076 155.191 115.378 155.541 115.636 156L117.379 155.019C117.005 154.354 116.533 153.789 115.957 153.346L114.738 154.931ZM115.649 156.022C115.912 156.464 116.138 157.037 116.308 157.76L118.255 157.302C118.05 156.432 117.76 155.657 117.367 154.998L115.649 156.022ZM116.309 157.763C116.473 158.453 116.562 159.297 116.562 160.309H118.562C118.562 159.187 118.464 158.18 118.254 157.299L116.309 157.763ZM116.562 160.309V165.371H118.562V160.309H116.562ZM116.562 165.371C116.562 165.484 116.558 165.597 116.548 165.71L118.541 165.876C118.555 165.708 118.562 165.539 118.562 165.371H116.562ZM116.548 165.71C116.546 165.736 116.54 165.759 116.529 165.783L118.35 166.611C118.456 166.378 118.52 166.131 118.541 165.876L116.548 165.71ZM116.511 165.826C116.516 165.814 116.523 165.799 116.535 165.783C116.546 165.767 116.559 165.753 116.57 165.743L117.887 167.249C118.101 167.061 118.263 166.83 118.368 166.569L116.511 165.826ZM116.629 165.696C116.765 165.594 116.874 165.602 116.842 165.602V167.602C117.138 167.602 117.504 167.539 117.829 167.296L116.629 165.696ZM116.842 165.602C116.862 165.602 116.948 165.608 117.048 165.673C117.148 165.739 117.189 165.816 117.198 165.838L115.36 166.626C115.475 166.894 115.663 167.157 115.95 167.345C116.238 167.534 116.552 167.602 116.842 167.602V165.602ZM117.214 165.876C117.178 165.781 117.139 165.601 117.139 165.301H115.139C115.139 165.75 115.194 166.191 115.345 166.588L117.214 165.876ZM117.139 165.301V164.088H115.139V165.301H117.139ZM115.358 163.463C115.174 163.693 114.919 163.951 114.58 164.238L115.869 165.766C116.28 165.42 116.634 165.069 116.92 164.713L115.358 163.463ZM114.58 164.238C114.288 164.484 113.893 164.733 113.376 164.976L114.226 166.786C114.857 166.49 115.411 166.153 115.869 165.766L114.58 164.238ZM113.391 164.969C112.895 165.192 112.277 165.39 111.529 165.555L111.96 167.508C112.805 167.321 113.559 167.086 114.21 166.793L113.391 164.969ZM111.542 165.552C110.83 165.698 109.957 165.777 108.914 165.777V167.777C110.05 167.777 111.065 167.692 111.946 167.511L111.542 165.552ZM108.914 165.777C107.944 165.777 107.039 165.705 106.198 165.563L105.865 167.535C106.828 167.697 107.845 167.777 108.914 167.777V165.777ZM106.2 165.563C105.384 165.424 104.7 165.208 104.134 164.931L103.252 166.726C104.023 167.104 104.897 167.369 105.863 167.534L106.2 165.563ZM104.141 164.934C103.604 164.665 103.21 164.338 102.929 163.962L101.329 165.162C101.821 165.818 102.47 166.335 103.246 166.722L104.141 164.934ZM102.944 163.983C102.706 163.648 102.566 163.225 102.566 162.664H100.566C100.566 163.58 100.802 164.422 101.314 165.142L102.944 163.983ZM102.566 162.664C102.566 161.942 102.714 161.431 102.942 161.067L101.246 160.007C100.77 160.768 100.566 161.675 100.566 162.664H102.566ZM102.939 161.072C103.205 160.651 103.571 160.31 104.061 160.047L103.115 158.285C102.339 158.701 101.709 159.274 101.249 160.002L102.939 161.072ZM104.074 160.04C104.59 159.753 105.216 159.539 105.967 159.414L105.638 157.441C104.702 157.597 103.851 157.876 103.102 158.292L104.074 160.04ZM105.965 159.414C106.76 159.284 107.625 159.217 108.562 159.217V157.217C107.531 157.217 106.556 157.29 105.641 157.441L105.965 159.414ZM108.562 159.217C109.274 159.217 109.986 159.245 110.698 159.301L110.856 157.308C110.092 157.247 109.327 157.217 108.562 157.217V159.217ZM110.715 159.303C111.437 159.348 112.115 159.421 112.748 159.521L113.06 157.545C112.358 157.435 111.618 157.355 110.84 157.307L110.715 159.303ZM112.765 159.523C113.398 159.612 113.964 159.727 114.466 159.866L114.999 157.938C114.4 157.773 113.747 157.642 113.043 157.543L112.765 159.523ZM114.49 159.872C115 160 115.387 160.145 115.67 160.295L116.608 158.529C116.14 158.281 115.59 158.086 114.975 157.932L114.49 159.872ZM117.139 159.412C117.139 158.143 116.973 157.03 116.581 156.13L114.747 156.929C114.988 157.482 115.139 158.291 115.139 159.412H117.139ZM116.581 156.13C116.209 155.277 115.691 154.565 115.001 154.044L113.796 155.64C114.161 155.916 114.486 156.328 114.747 156.929L116.581 156.13ZM115.012 154.052C114.352 153.539 113.593 153.207 112.754 153.05L112.387 155.016C112.93 155.117 113.39 155.324 113.784 155.631L115.012 154.052ZM112.773 153.054C112.022 152.899 111.245 152.822 110.443 152.822V154.822C111.118 154.822 111.759 154.886 112.368 155.012L112.773 153.054Z" fill="#184276"/>
</svg>
